<?xml version="1.0" encoding="iso-8859-1"?>
<!-- Generator: Adobe Illustrator 19.0.0, SVG Export Plug-In . SVG Version: 6.00 Build 0)  -->
<svg version="1.1" id="Capa_1" xmlns="http://www.w3.org/2000/svg" xmlns:xlink="http://www.w3.org/1999/xlink" x="0px" y="0px"
	 viewBox="0 0 512.001 512.001" style="enable-background:new 0 0 512.001 512.001;" xml:space="preserve">
<g>
	<g>
		<path d="M256,0C132.244,0,31,100.27,31,225c0,45.127,13.247,88.468,38.351,125.667V446c0,8.284,6.716,15,15,15h45v26
			c0,7.564,5.633,13.946,13.14,14.884l80,10c4.117,0.518,8.455-0.696,11.788-3.639c3.225-2.848,5.073-6.942,5.073-11.245V295
			c0-4.303-1.848-8.397-5.073-11.245c-3.226-2.848-7.521-4.175-11.788-3.639l-80,10c-7.506,0.938-13.14,7.319-13.14,14.884v26
			H92.305C71.8,299.429,61,262.947,61,225c0-15.126,1.731-29.855,5.006-44h33.576c16.114,0,31.081-8.687,39.06-22.67
			C162.691,116.183,207.66,90,256,90c48.34,0,93.31,26.183,117.358,68.33c7.979,13.983,22.945,22.67,39.06,22.67h33.576
			c3.274,14.145,5.006,28.874,5.006,44c0,37.946-10.8,74.429-31.306,106h-37.046v-26c0-7.564-5.633-13.946-13.14-14.884l-80-10
			c-4.269-0.535-8.562,0.79-11.787,3.639c-3.226,2.848-5.073,6.942-5.073,11.245v202c0,4.303,1.848,8.397,5.073,11.245
			c3.226,2.849,7.527,4.175,11.787,3.639l80-10c7.507-0.938,13.14-7.319,13.14-14.884v-26h45c8.284,0,15-6.716,15-15v-95.333
			C467.753,313.467,481,270.126,481,225C481,100.591,380.088,0,256,0z"/>
	</g>
</g>
<g>
</g>
<g>
</g>
<g>
</g>
<g>
</g>
<g>
</g>
<g>
</g>
<g>
</g>
<g>
</g>
<g>
</g>
<g>
</g>
<g>
</g>
<g>
</g>
<g>
</g>
<g>
</g>
<g>
</g>
</svg>
