<?xml version="1.0" encoding="utf-8"?>
<!-- Generator: Adobe Illustrator 21.0.0, SVG Export Plug-In . SVG Version: 6.00 Build 0)  -->
<svg version="1.1" id="Ebene_1" xmlns="http://www.w3.org/2000/svg" xmlns:xlink="http://www.w3.org/1999/xlink" x="0px" y="0px"
	 viewBox="0 0 128 128" style="enable-background:new 0 0 128 128;" xml:space="preserve">
<style type="text/css">
	.st0{fill:none;stroke:#000000;stroke-width:2;stroke-linecap:round;stroke-linejoin:round;stroke-miterlimit:10;}
	.st1{fill:none;stroke:#000000;stroke-width:4;stroke-linecap:round;stroke-linejoin:round;stroke-miterlimit:10;}
	.st2{stroke:#000000;stroke-linecap:round;stroke-linejoin:round;stroke-miterlimit:10;}
	.st3{stroke:#000000;stroke-miterlimit:10;}
	.st4{font-family:'PlayfairDisplay-Regular';}
	.st5{font-size:50.8937px;}
	.st6{font-size:46px;}
	.st7{fill:none;stroke:#000000;stroke-width:4;stroke-linecap:round;stroke-linejoin:round;}
</style>
<g>
	<rect x="50" y="16" class="st1" width="54" height="54"/>
	<text transform="matrix(1 0 0 1 69.6885 63.7236)" class="st4 st5">i</text>
	<text transform="matrix(0.742 -0.4378 0 1 34.9588 72.0874)" class="st4 st6">i</text>
	<path class="st7" d="M68,114h-4c-2.2,0-4-1.8-4-4V82c0-2.2,1.8-4,4-4h4c2.2,0,4,1.8,4,4v28C72,112.2,70.2,114,68,114z"/>
	<polyline class="st1" points="50,70 30,82 54,82 	"/>
	<line class="st1" x1="30" y1="28" x2="30" y2="82"/>
	<polyline class="st1" points="104,70 84,82 78,82 	"/>
	<line class="st1" x1="30" y1="28" x2="50" y2="16"/>
</g>
</svg>
