<?xml version="1.0" encoding="utf-8"?>
<!-- Generator: Adobe Illustrator 22.0.1, SVG Export Plug-In . SVG Version: 6.00 Build 0)  -->
<svg version="1.1" id="Ebene_1" xmlns="http://www.w3.org/2000/svg" xmlns:xlink="http://www.w3.org/1999/xlink" x="0px" y="0px"
	 viewBox="0 0 250 250" style="enable-background:new 0 0 250 250;" xml:space="preserve">
<style type="text/css">
	.st0{fill-rule:evenodd;clip-rule:evenodd;fill:url(#SVGID_1_);}
	.st1{fill-rule:evenodd;clip-rule:evenodd;fill:url(#SVGID_2_);}
	.st2{fill-rule:evenodd;clip-rule:evenodd;fill:url(#SVGID_3_);}
</style>
<linearGradient id="SVGID_1_" gradientUnits="userSpaceOnUse" x1="-455.1196" y1="70.8974" x2="-377.1332" y2="156.3124">
	<stop  offset="0" style="stop-color:#5A421C"/>
	<stop  offset="6.884693e-02" style="stop-color:#61471E"/>
	<stop  offset="0.1678" style="stop-color:#745625"/>
	<stop  offset="0.2843" style="stop-color:#936E2F"/>
	<stop  offset="0.3333" style="stop-color:#A27A34"/>
	<stop  offset="0.5161" style="stop-color:#A27A34"/>
	<stop  offset="0.6613" style="stop-color:#A27A34"/>
	<stop  offset="1" style="stop-color:#5A421C"/>
</linearGradient>
<path class="st0" d="M-395.3,83.1c3.9-0.1,7.8,0,11.8,0c0.5,0,1,0,1.6,0V62.6c-2.1-0.2-4.3-0.5-6.5-0.6c-4-0.2-8-0.4-12.1-0.3
	c-6.1,0.1-12,1.6-17,5.3c-5.8,4.2-9,10.1-10.2,17c-0.5,2.9-0.6,5.8-0.7,8.8c-0.1,4.6,0,9.2,0,13.7v1.7H-448V131h19.4v57.3h23.7
	v-57.2h19.3c1-7.6,2-15.1,3-22.9c-1.6,0-3,0-4.3,0c-5.5,0-18.1,0-18.1,0s0.1-11.3,0.2-16.2C-404.7,85.3-400.7,83.3-395.3,83.1z"/>
<linearGradient id="SVGID_2_" gradientUnits="userSpaceOnUse" x1="-196.1786" y1="128.4523" x2="-85.5" y2="128.4523">
	<stop  offset="0" style="stop-color:#5A421C"/>
	<stop  offset="6.884693e-02" style="stop-color:#61471E"/>
	<stop  offset="0.1678" style="stop-color:#745625"/>
	<stop  offset="0.2843" style="stop-color:#936E2F"/>
	<stop  offset="0.3333" style="stop-color:#A27A34"/>
	<stop  offset="0.5161" style="stop-color:#A27A34"/>
	<stop  offset="0.6613" style="stop-color:#A27A34"/>
	<stop  offset="1" style="stop-color:#5A421C"/>
</linearGradient>
<path class="st1" d="M-162.6,153.9c-11.8-0.4-19.2-8.9-21.2-15.8c3.3,0.6,6.5,0.5,9.7-0.3c0.1,0,0.2-0.1,0.3-0.1
	c-6.4-1.5-11.3-4.9-14.8-10.4c-2.3-3.7-3.4-7.7-3.3-12.1c3.2,1.7,6.5,2.7,10.1,2.8c-4.8-3.5-8-8-9.4-13.8
	c-1.3-5.8-0.5-11.3,2.4-16.5c12.3,14.5,27.9,22.5,46.9,23.8c-0.1-0.9-0.3-1.7-0.4-2.5c-0.6-5.3,0.4-10.3,3.3-14.9
	c3.6-5.7,8.8-9.2,15.4-10.3c7.6-1.2,14.3,0.9,19.9,6.3c0.4,0.4,0.7,0.5,1.2,0.4c4.7-1,9.1-2.7,13.2-5.1c0.1-0.1,0.2-0.1,0.3-0.2
	c0,0,0.1,0,0.1,0c-1.8,5.3-5.1,9.4-9.7,12.4c4.4-0.5,8.6-1.7,12.7-3.4c0,0,0.1,0.1,0.1,0.1c-0.9,1.1-1.7,2.3-2.6,3.4
	c-2.4,3-5.2,5.6-8.3,7.8c-0.3,0.2-0.4,0.4-0.4,0.7c0.1,3.4,0,6.7-0.4,10.1c-0.9,7.1-2.8,13.8-5.9,20.2c-3.1,6.6-7.2,12.7-12.3,17.9
	c-8.7,9-19.1,14.7-31.3,17.4c-4.2,0.9-8.4,1.4-12.7,1.5c-13.1,0.4-25.2-2.9-36.4-9.8c-0.1-0.1-0.3-0.2-0.5-0.3
	c7.9,0.9,15.5-0.2,22.7-3.1C-169.6,158.6-166,156.6-162.6,153.9z"/>
<linearGradient id="SVGID_3_" gradientUnits="userSpaceOnUse" x1="67.8196" y1="129.7687" x2="186" y2="129.7687">
	<stop  offset="0" style="stop-color:#5A421C"/>
	<stop  offset="6.884693e-02" style="stop-color:#61471E"/>
	<stop  offset="0.1678" style="stop-color:#745625"/>
	<stop  offset="0.2843" style="stop-color:#936E2F"/>
	<stop  offset="0.3333" style="stop-color:#A27A34"/>
	<stop  offset="0.5161" style="stop-color:#A27A34"/>
	<stop  offset="0.6613" style="stop-color:#A27A34"/>
	<stop  offset="1" style="stop-color:#5A421C"/>
</linearGradient>
<path class="st2" d="M80,168.8c-4.5-1.5-7.5-4.4-9.1-8.8c-3.9-10.8-5.1-56,2.5-64.9c2.6-3,5.9-4.8,9.9-5.2
	c20.4-2.2,83.4-1.9,90.6,0.7c4.3,1.5,7.3,4.3,8.9,8.6c4.3,11.2,4.4,51.8-0.6,62.6c-1.4,2.9-3.6,5-6.4,6.4
	C168.2,172.1,90,172.1,80,168.8z M112.4,147.6c12.3-6.4,24.4-12.7,36.7-19c-12.3-6.4-24.5-12.8-36.7-19.2
	C112.4,122.2,112.4,134.8,112.4,147.6z"/>
</svg>
