<?xml version="1.0" encoding="utf-8"?>
<!-- Generator: Adobe Illustrator 22.0.1, SVG Export Plug-In . SVG Version: 6.00 Build 0)  -->
<svg version="1.1" id="Ebene_1" xmlns="http://www.w3.org/2000/svg" xmlns:xlink="http://www.w3.org/1999/xlink" x="0px" y="0px"
	 viewBox="0 0 250 250" style="enable-background:new 0 0 250 250;" xml:space="preserve">
<style type="text/css">
	.st0{fill-rule:evenodd;clip-rule:evenodd;fill:url(#SVGID_1_);}
	.st1{fill-rule:evenodd;clip-rule:evenodd;fill:url(#SVGID_2_);}
	.st2{fill-rule:evenodd;clip-rule:evenodd;fill:url(#SVGID_3_);}
	.st3{fill-rule:evenodd;clip-rule:evenodd;fill:url(#SVGID_4_);}
	.st4{fill-rule:evenodd;clip-rule:evenodd;fill:url(#SVGID_5_);}
	.st5{fill-rule:evenodd;clip-rule:evenodd;fill:url(#SVGID_6_);}
</style>
<linearGradient id="SVGID_1_" gradientUnits="userSpaceOnUse" x1="-45.1038" y1="125" x2="445.139" y2="125">
	<stop  offset="4.157042e-07" style="stop-color:#1D232C"/>
	<stop  offset="0.6022" style="stop-color:#1D232C"/>
	<stop  offset="0.8527" style="stop-color:#354159"/>
	<stop  offset="1" style="stop-color:#41506E"/>
</linearGradient>
<path class="st0" d="M246.1,125c0,66.9-54.2,121.1-121.1,121.1C58.1,246.1,3.9,191.9,3.9,125C3.9,58.1,58.1,3.9,125,3.9
	C191.9,3.9,246.1,58.1,246.1,125z"/>
<linearGradient id="SVGID_2_" gradientUnits="userSpaceOnUse" x1="73.8214" y1="128.4523" x2="184.5" y2="128.4523">
	<stop  offset="0" style="stop-color:#5A421C"/>
	<stop  offset="6.884693e-02" style="stop-color:#61471E"/>
	<stop  offset="0.1678" style="stop-color:#745625"/>
	<stop  offset="0.2843" style="stop-color:#936E2F"/>
	<stop  offset="0.3333" style="stop-color:#A27A34"/>
	<stop  offset="0.5161" style="stop-color:#A27A34"/>
	<stop  offset="0.6613" style="stop-color:#A27A34"/>
	<stop  offset="1" style="stop-color:#5A421C"/>
</linearGradient>
<path class="st1" d="M107.4,153.9c-11.8-0.4-19.2-8.9-21.2-15.8c3.3,0.6,6.5,0.5,9.7-0.3c0.1,0,0.2-0.1,0.3-0.1
	c-6.4-1.5-11.3-4.9-14.8-10.4c-2.3-3.7-3.4-7.7-3.3-12.1c3.2,1.7,6.5,2.7,10.1,2.8c-4.8-3.5-8-8-9.4-13.8
	c-1.3-5.8-0.5-11.3,2.4-16.5c12.3,14.5,27.9,22.5,46.9,23.8c-0.1-0.9-0.3-1.7-0.4-2.5c-0.6-5.3,0.4-10.3,3.3-14.9
	c3.6-5.7,8.8-9.2,15.4-10.3c7.6-1.2,14.3,0.9,19.9,6.3c0.4,0.4,0.7,0.5,1.2,0.4c4.7-1,9.1-2.7,13.2-5.1c0.1-0.1,0.2-0.1,0.3-0.2
	c0,0,0.1,0,0.1,0c-1.8,5.3-5.1,9.4-9.7,12.4c4.4-0.5,8.6-1.7,12.7-3.4c0,0,0.1,0.1,0.1,0.1c-0.9,1.1-1.7,2.3-2.6,3.4
	c-2.4,3-5.2,5.6-8.3,7.8c-0.3,0.2-0.4,0.4-0.4,0.7c0.1,3.4,0,6.7-0.4,10.1c-0.9,7.1-2.8,13.8-5.9,20.2c-3.1,6.6-7.2,12.7-12.3,17.9
	c-8.7,9-19.1,14.7-31.3,17.4c-4.2,0.9-8.4,1.4-12.7,1.5c-13.1,0.4-25.2-2.9-36.4-9.8c-0.1-0.1-0.3-0.2-0.5-0.3
	c7.9,0.9,15.5-0.2,22.7-3.1C100.4,158.6,104,156.6,107.4,153.9z"/>
</svg>
