<?xml version="1.0" encoding="utf-8"?>
<!-- Generator: Adobe Illustrator 22.0.1, SVG Export Plug-In . SVG Version: 6.00 Build 0)  -->
<svg version="1.1" id="Ebene_1" xmlns="http://www.w3.org/2000/svg" xmlns:xlink="http://www.w3.org/1999/xlink" x="0px" y="0px"
	 viewBox="0 0 250 250" style="enable-background:new 0 0 250 250;" xml:space="preserve">
<style type="text/css">
	.st0{fill-rule:evenodd;clip-rule:evenodd;fill:url(#SVGID_1_);}
	.st1{fill-rule:evenodd;clip-rule:evenodd;fill:url(#SVGID_2_);}
	.st2{fill-rule:evenodd;clip-rule:evenodd;fill:url(#SVGID_3_);}
	.st3{fill-rule:evenodd;clip-rule:evenodd;fill:url(#SVGID_4_);}
	.st4{fill-rule:evenodd;clip-rule:evenodd;fill:url(#SVGID_5_);}
	.st5{fill-rule:evenodd;clip-rule:evenodd;fill:url(#SVGID_6_);}
</style>
<linearGradient id="SVGID_1_" gradientUnits="userSpaceOnUse" x1="-45.096" y1="125" x2="445.1243" y2="125">
	<stop  offset="4.157042e-07" style="stop-color:#1D232C"/>
	<stop  offset="0.6022" style="stop-color:#1D232C"/>
	<stop  offset="0.8527" style="stop-color:#354159"/>
	<stop  offset="1" style="stop-color:#41506E"/>
</linearGradient>
<path class="st0" d="M246.1,125c0,66.9-54.2,121.1-121.1,121.1C58.1,246.1,3.9,191.9,3.9,125C3.9,58.1,58.1,3.9,125,3.9
	C191.9,3.9,246.1,58.1,246.1,125z"/>
<linearGradient id="SVGID_2_" gradientUnits="userSpaceOnUse" x1="67.8196" y1="129.7687" x2="186" y2="129.7687">
	<stop  offset="0" style="stop-color:#5A421C"/>
	<stop  offset="6.884693e-02" style="stop-color:#61471E"/>
	<stop  offset="0.1678" style="stop-color:#745625"/>
	<stop  offset="0.2843" style="stop-color:#936E2F"/>
	<stop  offset="0.3333" style="stop-color:#A27A34"/>
	<stop  offset="0.5161" style="stop-color:#A27A34"/>
	<stop  offset="0.6613" style="stop-color:#A27A34"/>
	<stop  offset="1" style="stop-color:#5A421C"/>
</linearGradient>
<path class="st1" d="M80,168.8c-4.5-1.5-7.5-4.4-9.1-8.8c-3.9-10.8-5.1-56,2.5-64.9c2.6-3,5.9-4.8,9.9-5.2
	c20.4-2.2,83.4-1.9,90.6,0.7c4.3,1.5,7.3,4.3,8.9,8.6c4.3,11.2,4.4,51.8-0.6,62.6c-1.4,2.9-3.6,5-6.4,6.4
	C168.2,172.1,90,172.1,80,168.8z M112.4,147.6c12.3-6.4,24.4-12.7,36.7-19c-12.3-6.4-24.5-12.8-36.7-19.2
	C112.4,122.2,112.4,134.8,112.4,147.6z"/>
</svg>
