<svg xmlns="http://www.w3.org/2000/svg" width="49.31" height="46" viewBox="0 0 49.31 46">
  <defs>
    <style>
      .cls-1 {
        fill: #8a7034;
      }

      .cls-2 {
        fill: none;
        stroke: #8a7034;
        stroke-miterlimit: 10;
        stroke-width: 2px;
      }
    </style>
  </defs>
  <title>audio_off</title>
  <g id="Ebene_2" data-name="Ebene 2">
    <g id="Capa_1" data-name="Capa 1">
      <path class="cls-1" d="M28.4.4a3,3,0,0,0-3.09,0l-.13.09L11.63,12H1a1,1,0,0,0-1,1V32a1,1,0,0,0,1,1H11.61L25.15,45.44l.16.12a3,3,0,0,0,3.09,0A3.12,3.12,0,0,0,30,42.85V3.16A3.12,3.12,0,0,0,28.4.4ZM28,42.85a1.15,1.15,0,0,1-.58,1,1,1,0,0,1-1,0L13,31.56V27a1,1,0,0,0-2,0v4H2V14h9v4a1,1,0,0,0,2,0V13.47L26.4,2.13a1,1,0,0,1,1,0,1.15,1.15,0,0,1,.58,1Z"/>
      <line class="cls-2" x1="48.6" y1="16.06" x2="35.72" y2="28.94"/>
      <line class="cls-2" x1="35.72" y1="16.06" x2="48.6" y2="28.94"/>
    </g>
  </g>
</svg>
