<svg xmlns="http://www.w3.org/2000/svg" width="52.03" height="46" viewBox="0 0 52.03 46">
  <defs>
    <style>
      .cls-1 {
        fill: #8a7034;
      }
    </style>
  </defs>
  <title>audio_on</title>
  <g id="Ebene_2" data-name="Ebene 2">
    <g id="Capa_1" data-name="Capa 1">
      <g>
        <path class="cls-1" d="M28.4.4a3,3,0,0,0-3.09,0l-.13.09L11.63,12H1a1,1,0,0,0-1,1V32a1,1,0,0,0,1,1H11.61L25.15,45.44l.16.12a3,3,0,0,0,3.09,0A3.12,3.12,0,0,0,30,42.85V3.16A3.12,3.12,0,0,0,28.4.4ZM28,42.85a1.15,1.15,0,0,1-.58,1,1,1,0,0,1-1,0L13,31.56V27a1,1,0,0,0-2,0v4H2V14h9v4a1,1,0,0,0,2,0V13.47L26.4,2.13a1,1,0,0,1,1,0,1.15,1.15,0,0,1,.58,1Z"/>
        <path class="cls-1" d="M38.8,4.06A1,1,0,0,0,38.15,6a17.48,17.48,0,0,1,0,33.11A1,1,0,0,0,38.5,41a1,1,0,0,0,.32-.05,19.48,19.48,0,0,0,0-36.89Z"/>
        <path class="cls-1" d="M43,22.5a13.56,13.56,0,0,0-9.75-13,1,1,0,0,0-.55,1.92,11.49,11.49,0,0,1,0,22.08,1,1,0,0,0,.28,2,1,1,0,0,0,.28,0A13.56,13.56,0,0,0,43,22.5Z"/>
      </g>
    </g>
  </g>
</svg>
