<?xml version="1.0" encoding="utf-8"?>
<!-- Generator: Adobe Illustrator 21.0.0, SVG Export Plug-In . SVG Version: 6.00 Build 0)  -->
<svg version="1.1" id="Ebene_1" xmlns="http://www.w3.org/2000/svg" xmlns:xlink="http://www.w3.org/1999/xlink" x="0px" y="0px"
	 viewBox="0 0 128 128" style="enable-background:new 0 0 128 128;" xml:space="preserve">
<style type="text/css">
	.st0{fill:none;stroke:#000000;stroke-width:2;stroke-linecap:round;stroke-linejoin:round;stroke-miterlimit:10;}
	.st1{fill:none;stroke:#000000;stroke-width:4;stroke-linecap:round;stroke-linejoin:round;stroke-miterlimit:10;}
	.st2{stroke:#000000;stroke-linecap:round;stroke-linejoin:round;stroke-miterlimit:10;}
	.st3{stroke:#000000;stroke-miterlimit:10;}
	.st4{fill:none;stroke:#000000;stroke-width:4;stroke-linecap:round;stroke-linejoin:round;}
</style>
<g>
	<line class="st1" x1="64" y1="64" x2="64" y2="108"/>
	<polyline class="st1" points="44,54 44,64 84,64 84,54 	"/>
	<polygon class="st1" points="110,50 88,52 64,58 40,52 18,50 18,14 40,16 64,22 88,16 110,14 	"/>
	<polyline class="st0" points="60,30 40,25 28,23.9 	"/>
	<polyline class="st0" points="60,36 40,31 28,29.9 	"/>
	<polyline class="st0" points="60,42 40,37 28,35.9 	"/>
	<polyline class="st0" points="60,48 40,43 28,41.9 	"/>
	<polyline class="st0" points="68,30 88,25 100,23.9 	"/>
	<polygon class="st2" points="64,10 28,66 32.5,68.5 	"/>
	<polyline class="st0" points="68,36 88,31 100,29.9 	"/>
	<polyline class="st0" points="68,42 88,37 100,35.9 	"/>
	<polyline class="st0" points="68,48 88,43 100,41.9 	"/>
	<line class="st1" x1="64" y1="108" x2="74" y2="100"/>
	<line class="st1" x1="64" y1="108" x2="54" y2="100"/>
	<polyline class="st1" points="84,96 84,114 44,114 44,96 	"/>
</g>
</svg>
