<svg xmlns="http://www.w3.org/2000/svg" width="149.4" height="125.69" viewBox="0 0 149.4 125.69">
  <defs>
    <style>
      .cls-1 {
        fill: #8a7034;
      }
    </style>
  </defs>
  <title>headphone</title>
  <g id="Ebene_2" data-name="Ebene 2">
    <g id="Capa_1" data-name="Capa 1">
      <g>
        <path class="cls-1" d="M32.62,69v51.17a5.51,5.51,0,1,0,11,0V69a5.51,5.51,0,0,0-11,0Z"/>
        <path class="cls-1" d="M15.31,125.69H27.45V64.95a7.71,7.71,0,0,0,.09-.88,47.15,47.15,0,1,1,94.3,0,7.67,7.67,0,0,0,.12,1.18v60.45H134.1a15.58,15.58,0,0,0,15.31-15.84V78.17A15.78,15.78,0,0,0,138.35,63c-.59-34.82-28.91-63-63.66-63S11.61,28.16,11,63A15.76,15.76,0,0,0,0,78.18v31.67A15.59,15.59,0,0,0,15.31,125.69Z"/>
        <path class="cls-1" d="M105.77,69v51.17a5.51,5.51,0,1,0,11,0V69a5.51,5.51,0,1,0-11,0Z"/>
      </g>
    </g>
  </g>
</svg>
