<?xml version="1.0" encoding="utf-8"?>
<!-- Generator: Adobe Illustrator 21.0.0, SVG Export Plug-In . SVG Version: 6.00 Build 0)  -->
<svg version="1.1" id="Ebene_1" xmlns="http://www.w3.org/2000/svg" xmlns:xlink="http://www.w3.org/1999/xlink" x="0px" y="0px"
	 viewBox="0 0 128 128" style="enable-background:new 0 0 128 128;" xml:space="preserve">
<style type="text/css">
	.st0{fill:none;stroke:#000000;stroke-width:2;stroke-linecap:round;stroke-linejoin:round;stroke-miterlimit:10;}
	.st1{fill:none;stroke:#000000;stroke-width:4;stroke-linecap:round;stroke-linejoin:round;stroke-miterlimit:10;}
	.st2{stroke:#000000;stroke-linecap:round;stroke-linejoin:round;stroke-miterlimit:10;}
	.st3{stroke:#000000;stroke-miterlimit:10;}
	.st4{fill:none;stroke:#000000;stroke-width:4;stroke-linecap:round;stroke-linejoin:round;}
</style>
<g>
	<path class="st3" d="M101.3,24H25.9c-5.4,0-9.9,4.5-9.9,9.9v55c0,5.4,4.5,9.9,9.9,9.9h75.4c5.4,0,9.9-4.5,9.9-9.9v-55
		C111.2,28.4,106.8,24,101.3,24z M88.6,79.9c0,5.4-4.5,9.9-9.9,9.9H32.5c-5.4,0-9.9-4.5-9.9-9.9V44.7c0-5.4,4.5-9.9,9.9-9.9h46.2
		c5.4,0,9.9,4.5,9.9,9.9V79.9z M96.8,87.9c-2.7,0-4.9-2.2-4.9-4.9c0-2.7,2.2-4.9,4.9-4.9c2.7,0,4.9,2.2,4.9,4.9
		C101.8,85.6,99.5,87.9,96.8,87.9z M99.3,74.7c-4.1,0-7.4-3.3-7.4-7.4c0-4.1,3.3-7.4,7.4-7.4s7.4,3.3,7.4,7.4
		C106.7,71.3,103.4,74.7,99.3,74.7z"/>
	<line class="st1" x1="64.2" y1="24" x2="50.6" y2="15.3"/>
	<line class="st1" x1="63.8" y1="23.5" x2="86.9" y2="12"/>
	<polygon class="st1" points="37.4,96.1 29.2,106 42.4,96.1 	"/>
	<polygon class="st1" points="85.3,96.1 91.9,106 80.3,96.1 	"/>
</g>
</svg>
