<?xml version="1.0" encoding="utf-8"?>
<!-- Generator: Adobe Illustrator 22.0.1, SVG Export Plug-In . SVG Version: 6.00 Build 0)  -->
<svg version="1.1" id="Ebene_1" xmlns="http://www.w3.org/2000/svg" xmlns:xlink="http://www.w3.org/1999/xlink" x="0px" y="0px"
	 viewBox="0 0 250 250" style="enable-background:new 0 0 250 250;" xml:space="preserve">
<style type="text/css">
	.st0{fill-rule:evenodd;clip-rule:evenodd;fill:url(#SVGID_1_);}
	.st1{fill-rule:evenodd;clip-rule:evenodd;fill:url(#SVGID_2_);}
	.st2{fill-rule:evenodd;clip-rule:evenodd;fill:url(#SVGID_3_);}
	.st3{fill-rule:evenodd;clip-rule:evenodd;fill:url(#SVGID_4_);}
	.st4{fill-rule:evenodd;clip-rule:evenodd;fill:url(#SVGID_5_);}
	.st5{fill-rule:evenodd;clip-rule:evenodd;fill:url(#SVGID_6_);}
</style>
<linearGradient id="SVGID_1_" gradientUnits="userSpaceOnUse" x1="-45.1018" y1="125" x2="445.1353" y2="125">
	<stop  offset="4.157042e-07" style="stop-color:#1D232C"/>
	<stop  offset="0.6022" style="stop-color:#1D232C"/>
	<stop  offset="0.8527" style="stop-color:#354159"/>
	<stop  offset="1" style="stop-color:#41506E"/>
</linearGradient>
<path class="st0" d="M246.1,125c0,66.9-54.2,121.1-121.1,121.1C58.1,246.1,3.9,191.9,3.9,125C3.9,58.1,58.1,3.9,125,3.9
	C191.9,3.9,246.1,58.1,246.1,125z"/>
<linearGradient id="SVGID_2_" gradientUnits="userSpaceOnUse" x1="84.8804" y1="70.8974" x2="162.8668" y2="156.3124">
	<stop  offset="0" style="stop-color:#5A421C"/>
	<stop  offset="6.884693e-02" style="stop-color:#61471E"/>
	<stop  offset="0.1678" style="stop-color:#745625"/>
	<stop  offset="0.2843" style="stop-color:#936E2F"/>
	<stop  offset="0.3333" style="stop-color:#A27A34"/>
	<stop  offset="0.5161" style="stop-color:#A27A34"/>
	<stop  offset="0.6613" style="stop-color:#A27A34"/>
	<stop  offset="1" style="stop-color:#5A421C"/>
</linearGradient>
<path class="st1" d="M144.7,83.1c3.9-0.1,7.8,0,11.8,0c0.5,0,1,0,1.6,0V62.6c-2.1-0.2-4.3-0.5-6.5-0.6c-4-0.2-8-0.4-12.1-0.3
	c-6.1,0.1-12,1.6-17,5.3c-5.8,4.2-9,10.1-10.2,17c-0.5,2.9-0.6,5.8-0.7,8.8c-0.1,4.6,0,9.2,0,13.7v1.7H92V131h19.4v57.3h23.7v-57.2
	h19.3c1-7.6,2-15.1,3-22.9c-1.6,0-3,0-4.3,0c-5.5,0-18.1,0-18.1,0s0.1-11.3,0.2-16.2C135.3,85.3,139.3,83.3,144.7,83.1z"/>
</svg>
